ffmpeg version 3.4.8-0ubuntu0.2 Copyright (c) 2000-2020 the FFmpeg developers
  built with gcc 7 (Ubuntu 7.5.0-3ubuntu1~18.04)
  configuration: --prefix=/usr --extra-version=0ubuntu0.2 --toolchain=hardened --libdir=/usr/lib/x86_64-linux-gnu --incdir=/usr/include/x86_64-linux-gnu --enable-gpl --disable-stripping --enable-avresample --enable-avisynth --enable-gnutls --enable-ladspa --enable-libass --enable-libbluray --enable-libbs2b --enable-libcaca --enable-libcdio --enable-libflite --enable-libfontconfig --enable-libfreetype --enable-libfribidi --enable-libgme --enable-libgsm --enable-libmp3lame --enable-libmysofa --enable-libopenjpeg --enable-libopenmpt --enable-libopus --enable-libpulse --enable-librubberband --enable-librsvg --enable-libshine --enable-libsnappy --enable-libsoxr --enable-libspeex --enable-libssh --enable-libtheora --enable-libtwolame --enable-libvorbis --enable-libvpx --enable-libwavpack --enable-libwebp --enable-libx265 --enable-libxml2 --enable-libxvid --enable-libzmq --enable-libzvbi --enable-omx --enable-openal --enable-opengl --enable-sdl2 --enable-libdc1394 --enable-libdrm --enable-libiec61883 --enable-chromaprint --enable-frei0r --enable-libopencv --enable-libx264 --enable-shared
  libavutil      55. 78.100 / 55. 78.100
  libavcodec     57.107.100 / 57.107.100
  libavformat    57. 83.100 / 57. 83.100
  libavdevice    57. 10.100 / 57. 10.100
  libavfilter     6.107.100 /  6.107.100
  libavresample   3.  7.  0 /  3.  7.  0
  libswscale      4.  8.100 /  4.  8.100
  libswresample   2.  9.100 /  2.  9.100
  libpostproc    54.  7.100 / 54.  7.100
[rawvideo @ 0x55c6ae752a20] Estimating duration from bitrate, this may be inaccurate
Input #0, rawvideo, from '../../SVC-Encoder-20220109T061506Z-001/SVC-Encoder/Dataset/RollerCoaster/ERP_8x8/tile_yuv/Tile_48_480x240.yuv':
  Duration: 00:00:10.00, start: 0.000000, bitrate: 41472 kb/s
    Stream #0:0: Video: rawvideo (I420 / 0x30323449), yuv420p, 480x240, 41472 kb/s, 30 tbr, 30 tbn, 30 tbc
Stream mapping:
  Stream #0:0 -> #0:0 (rawvideo (native) -> h264 (libx264))
Press [q] to stop, [?] for help
[libx264 @ 0x55c6ae75fc60] using cpu capabilities: MMX2 SSE2Fast LZCNT SSSE3 SSE4.2 AVX
[libx264 @ 0x55c6ae75fc60] profile High, level 2.1
Output #0, rawvideo, to 'RollerCoaster_Tile_48_480x240_x264_QP_32.h264':
  Metadata:
    encoder         : Lavf57.83.100
    Stream #0:0: Video: h264 (libx264), yuv420p, 480x240, q=-1--1, 30 fps, 30 tbn, 30 tbc
    Metadata:
      encoder         : Lavc57.107.100 libx264
    Side data:
      cpb: bitrate max/min/avg: 0/0/0 buffer size: 0 vbv_delay: -1
frame=  245 fps=0.0 q=38.0 PSNR=Y:nan U:nan V:nan *:nan size=      39kB time=00:00:06.73 bitrate=  47.7kbits/s speed=13.4x    frame=  300 fps=0.0 q=38.0 LPSNR=Y:inf U:inf V:inf *:inf size=      60kB time=00:00:09.93 bitrate=  49.2kbits/s speed=15.2x    
video:60kB audio:0kB subtitle:0kB other streams:0kB global headers:0kB muxing overhead: 0.000000%
[libx264 @ 0x55c6ae75fc60] frame I:2     Avg QP:28.62  size:  7070  PSNR Mean Y:40.82 U:44.87 V:43.68 Avg:41.69 Global:41.64
[libx264 @ 0x55c6ae75fc60] frame P:76    Avg QP:30.15  size:   374  PSNR Mean Y:39.64 U:44.74 V:43.92 Avg:40.72 Global:40.70
[libx264 @ 0x55c6ae75fc60] frame B:222   Avg QP:37.37  size:    83  PSNR Mean Y:39.38 U:44.70 V:43.88 Avg:40.49 Global:40.48
[libx264 @ 0x55c6ae75fc60] consecutive B-frames:  0.7%  1.3%  2.0% 96.0%
[libx264 @ 0x55c6ae75fc60] mb I  I16..4: 22.6% 64.4% 13.0%
[libx264 @ 0x55c6ae75fc60] mb P  I16..4:  0.2%  0.1%  0.0%  P16..4: 31.0%  3.1%  0.3%  0.0%  0.0%    skip:65.3%
[libx264 @ 0x55c6ae75fc60] mb B  I16..4:  0.0%  0.0%  0.0%  B16..8: 14.5%  0.1%  0.0%  direct: 0.0%  skip:85.4%  L0:39.8% L1:60.1% BI: 0.2%
[libx264 @ 0x55c6ae75fc60] 8x8 transform intra:60.0% inter:89.6%
[libx264 @ 0x55c6ae75fc60] coded y,uvDC,uvAC intra: 61.2% 70.6% 30.6% inter: 1.1% 1.3% 0.0%
[libx264 @ 0x55c6ae75fc60] i16 v,h,dc,p:  9% 52% 11% 28%
[libx264 @ 0x55c6ae75fc60] i8 v,h,dc,ddl,ddr,vr,hd,vl,hu:  6% 39% 13%  4%  4%  3%  7%  3% 19%
[libx264 @ 0x55c6ae75fc60] i4 v,h,dc,ddl,ddr,vr,hd,vl,hu:  9% 37% 16%  5%  5%  4%  8%  5% 10%
[libx264 @ 0x55c6ae75fc60] i8c dc,h,v,p: 38% 43%  6% 13%
[libx264 @ 0x55c6ae75fc60] Weighted P-Frames: Y:0.0% UV:0.0%
[libx264 @ 0x55c6ae75fc60] ref P L0: 57.9% 19.9% 16.0%  6.2%
[libx264 @ 0x55c6ae75fc60] ref B L0: 74.1% 22.0%  4.0%
[libx264 @ 0x55c6ae75fc60] ref B L1: 77.1% 22.9%
[libx264 @ 0x55c6ae75fc60] PSNR Mean Y:39.458 U:44.712 V:43.886 Avg:40.554 Global:40.541 kb/s:48.86
